<svg xmlns="http://www.w3.org/2000/svg" xmlns:xlink="http://www.w3.org/1999/xlink" version="1.1" width="870" height="1761" style="width: 870px; height: 1761px; background: #ffffff" viewBox="0 0 870 1761"><style id="v-3" type="text/css">        .joint-element .scalable * {            vector-effect: non-scaling-stroke;        }    </style><defs joint-selector="defs"><marker id="v-21252848929" orient="auto" overflow="visible" markerUnits="userSpaceOnUse"><path id="v-51" stroke="#444444" fill="#444444" transform="rotate(180)" d="M 20 -10 0 0 20 10 Z"></path></marker></defs><g  joint-selector="layers" transform="matrix(1,0,0,1,0,0)"><g style="pointer-events: none;" ></g><g ></g><g  style="user-select: none;"><!--z-index:1--><!--z-index:2--><!--z-index:3--><!--z-index:4--><!--z-index:5--><!--z-index:6--><!--z-index:7--><!--z-index:8--><g   id="j_2"  transform="translate(20,1717)"><g id="v-6"><text  id="v-7" font-size="24px" xml:space="preserve" y="0.8em" font-weight="normal" text-anchor="start" fill="#444444" pointer-events="none" display="block" font-family="Tahoma, Verdana, Helvetica, Arial"><tspan  dy="0" display="block">Sunday, March 22, 2026 at 2:02 PM Central Standard Time</tspan></text></g></g><!--z-index:9--><g   id="j_1"  transform="translate(20,1671)"><g id="v-4"><text  id="v-5" font-size="36px" xml:space="preserve" y="0.8em" font-weight="normal" text-anchor="start" fill="#444444" pointer-events="none" display="block" font-family="Tahoma, Verdana, Helvetica, Arial"><tspan  dy="0" display="block">System Context View: Reddit Bot Analyzer</tspan></text></g></g><!--z-index:10--><g   id="j_3"  transform="translate(227,159)" style=""><g  id="v-11" style="opacity: 1;"><rect  x="0" y="160" width="400" height="240" rx="70" id="v-13" stroke-width="3" pointer-events="visiblePainted" fill="#10a40b" stroke="#055b8a" stroke-dasharray="" style="fill: rgb(16, 164, 11); stroke: rgb(5, 91, 138);"></rect><circle  cx="200" cy="88.88888888888889" r="88.88888888888889" id="v-12" stroke-width="3" pointer-events="visiblePainted" fill="#10a40b" stroke="#055b8a" stroke-dasharray="" style="fill: rgb(16, 164, 11); stroke: rgb(5, 91, 138);"></circle><line  x1="80" y1="266.6666666666667" x2="80" y2="400" id="v-19" stroke="#055b8a" stroke-width="1" stroke-dasharray="" style="stroke: rgb(5, 91, 138);"></line><line  x1="320" y1="266.6666666666667" x2="320" y2="400" id="v-20" stroke="#055b8a" stroke-width="1" stroke-dasharray="" style="stroke: rgb(5, 91, 138);"></line><text  id="v-14" font-size="33.599999999999994px" xml:space="preserve" y="230.64000000000001" font-weight="bold" text-anchor="middle" pointer-events="visible" font-family="Tahoma, Verdana, Helvetica, Arial" fill="#ffffff" dominant-baseline="hanging" transform="matrix(1,0,0,1,200,0)" style="fill: rgb(255, 255, 255);"><tspan  dy="0">Analista / Usuario</tspan><tspan dy="1.2em" x="0" >Final</tspan></text><text  id="v-15" font-size="16.799999999999997px" xml:space="preserve" y="312.56" text-anchor="middle" font-family="Tahoma, Verdana, Helvetica, Arial" fill="#ffffff" dominant-baseline="hanging" transform="matrix(1,0,0,1,200,0)" style="display: block; fill: rgb(255, 255, 255);"><tspan  dy="0">[Person]</tspan></text><text  id="v-16" font-size="24px" xml:space="preserve" display="none" y="230.64000000000001" text-anchor="middle" font-family="Tahoma, Verdana, Helvetica, Arial" fill="#ffffff" dominant-baseline="hanging" transform="matrix(1,0,0,1,200,0)" style="display: block; fill: rgb(255, 255, 255);"><tspan style="fill-opacity: 0; stroke-opacity: 0;"  dy="0">-</tspan></text><g  id="v-17" font-weight="normal" text-anchor="middle" color="#ffffff" transform="matrix(1,0,0,1,197.5,368)" style="fill: rgb(255, 255, 255);" display="none"><g ></g><g ></g><g ></g><g ></g></g><image  id="v-18"></image></g></g><!--z-index:11--><g   id="j_4"  transform="translate(202,1220)" style=""><g  id="v-21" style="opacity: 1;"><rect  id="v-22" rx="20" ry="20" stroke-width="3" pointer-events="visiblePainted" fill="#ff4500" stroke="#8c0b04" stroke-dasharray="" width="450" height="300" style="fill: rgb(255, 69, 0); stroke: rgb(140, 11, 4);"></rect><text  id="v-23" font-size="33.599999999999994px" xml:space="preserve" y="120.80000000000001" font-weight="bold" text-anchor="middle" pointer-events="visible" font-family="Tahoma, Verdana, Helvetica, Arial" fill="#ffffff" dominant-baseline="hanging" transform="matrix(1,0,0,1,225,0)" style="fill: rgb(255, 255, 255);"><tspan  dy="0">API de Reddit</tspan></text><text  id="v-24" font-size="16.799999999999997px" xml:space="preserve" y="162.4" text-anchor="middle" font-family="Tahoma, Verdana, Helvetica, Arial" fill="#ffffff" dominant-baseline="hanging" transform="matrix(1,0,0,1,225,0)" style="display: block; fill: rgb(255, 255, 255);"><tspan  dy="0">[Software System]</tspan></text><text  id="v-25" font-size="24px" xml:space="preserve" display="none" y="120.80000000000001" text-anchor="middle" font-family="Tahoma, Verdana, Helvetica, Arial" fill="#ffffff" dominant-baseline="hanging" transform="matrix(1,0,0,1,225,0)" style="display: block; fill: rgb(255, 255, 255);"><tspan style="fill-opacity: 0; stroke-opacity: 0;"  dy="0">-</tspan></text><g  id="v-26" color="#ffffff" transform="matrix(1,0,0,1,222.5,268)" style="fill: rgb(255, 255, 255);" display="none"><g ></g><g ></g><g ></g><g ></g></g><image  id="v-27"></image></g></g><!--z-index:12--><g   id="j_5"  transform="translate(202,740)" style=""><g  id="v-31" style="opacity: 1;"><rect  id="v-32" rx="20" ry="20" stroke-width="3" pointer-events="visiblePainted" fill="#0773af" stroke="#055b8a" stroke-dasharray="" width="450" height="300" style="fill: rgb(7, 115, 175); stroke: rgb(5, 91, 138);"></rect><text  id="v-33" font-size="33.599999999999994px" xml:space="preserve" y="120.80000000000001" font-weight="bold" text-anchor="middle" pointer-events="visible" font-family="Tahoma, Verdana, Helvetica, Arial" fill="#ffffff" dominant-baseline="hanging" transform="matrix(1,0,0,1,225,0)" style="fill: rgb(255, 255, 255);"><tspan  dy="0">Reddit Bot Analyzer</tspan></text><text  id="v-34" font-size="16.799999999999997px" xml:space="preserve" y="162.4" text-anchor="middle" font-family="Tahoma, Verdana, Helvetica, Arial" fill="#ffffff" dominant-baseline="hanging" transform="matrix(1,0,0,1,225,0)" style="display: block; fill: rgb(255, 255, 255);"><tspan  dy="0">[Software System]</tspan></text><text  id="v-35" font-size="24px" xml:space="preserve" display="none" y="120.80000000000001" text-anchor="middle" font-family="Tahoma, Verdana, Helvetica, Arial" fill="#ffffff" dominant-baseline="hanging" transform="matrix(1,0,0,1,225,0)" style="display: block; fill: rgb(255, 255, 255);"><tspan style="fill-opacity: 0; stroke-opacity: 0;"  dy="0">-</tspan></text><g  id="v-36" color="#ffffff" transform="matrix(1,0,0,1,210,268)" style="fill: rgb(255, 255, 255);" display="none"><g  transform="translate(5 0)"><svg xmlns="http://www.w3.org/2000/svg" width="20" height="20" fill="currentColor" viewBox="0 0 16 16"><path fill-rule="evenodd" d="M6.5 12a5.5 5.5 0 1 0 0-11 5.5 5.5 0 0 0 0 11zM13 6.5a6.5 6.5 0 1 1-13 0 6.5 6.5 0 0 1 13 0z"></path><path d="M10.344 11.742c.03.04.062.078.098.115l3.85 3.85a1 1 0 0 0 1.415-1.414l-3.85-3.85a1.007 1.007 0 0 0-.115-.1 6.538 6.538 0 0 1-1.398 1.4z"></path><path fill-rule="evenodd" d="M6.5 3a.5.5 0 0 1 .5.5V6h2.5a.5.5 0 0 1 0 1H7v2.5a.5.5 0 0 1-1 0V7H3.5a.5.5 0 0 1 0-1H6V3.5a.5.5 0 0 1 .5-.5z"></path></svg></g><g ></g><g ></g><g ></g></g><image  id="v-37"></image></g></g><!--z-index:13--><g   id="j_6"  style="opacity: 1;"><path fill="none" cursor="pointer" stroke="transparent" stroke-linecap="round" joint-selector="wrapper" id="v-49" stroke-width="10" stroke-linejoin="round" d="M 427 559 L 427 740" style="stroke-width: 10px;"></path><path fill="none" pointer-events="none" joint-selector="line" id="v-48" stroke="#444444" stroke-width="2" stroke-linejoin="round" stroke-dasharray="8 8" d="M 427 559 L 427 740" marker-end="url(#v-21252848929)"></path><g id="v-41" ><g id="v-42"  label-idx="0" cursor="move" transform="matrix(1,0,0,1,427,649.5)" style="cursor: default;"><rect joint-selector="rect" id="v-45" fill="#ffffff" rx="3" ry="3" x="-74.74810791015625" y="-48.63610076904297" width="149.83206176757812" height="92.36070251464844" pointer-events="none"  style="display: block;"></rect><text joint-selector="text" id="v-44" font-size="24px" xml:space="preserve" fill="#444444" text-anchor="middle" pointer-events="none" font-family="Tahoma, Verdana, Helvetica, Arial" font-weight="normal"  style="display: block;"><tspan  dy="-0.8999999999999999em">Introduce</tspan><tspan dy="1.2em" x="0" >subreddit y ve</tspan><tspan dy="1.2em" x="0" >resultados</tspan></text></g><g id="v-43"  label-idx="1" cursor="move" transform="matrix(1,0,0,1,417,690.2999877929688)" style="cursor: default;"><rect joint-selector="rect" id="v-47" fill="#ffffff" rx="3" ry="3" x="0" y="0" width="0" height="0"  display="none"></rect><text joint-selector="text" id="v-46" fill="#000000" font-size="14" text-anchor="middle" text-vertical-anchor="middle" pointer-events="none"></text></g></g></g><!--z-index:14--><g   id="j_7"  style="opacity: 1;"><path fill="none" cursor="pointer" stroke="transparent" stroke-linecap="round" joint-selector="wrapper" id="v-66" stroke-width="10" stroke-linejoin="round" d="M 336.53 1040 L 287 1122 C 283.66666666666663 1127.6 283.66666666666663 1133.2666666666667 287 1139 L 336.22 1220" style="stroke-width: 10px;"></path><path fill="none" pointer-events="none" joint-selector="line" id="v-65" stroke="#444444" stroke-width="2" stroke-linejoin="round" stroke-dasharray="8 8" d="M 336.53 1040 L 287 1122 C 283.66666666666663 1127.6 283.66666666666663 1133.2666666666667 287 1139 L 336.22 1220" marker-end="url(#v-21252848929)"></path><g id="v-55" ><g id="v-56"  label-idx="0" cursor="move" transform="matrix(1,0,0,1,284.5074768066406,1116.5853271484375)" style="cursor: default;"><rect joint-selector="rect" id="v-60" fill="#ffffff" rx="3" ry="3" x="-85.43240356445312" y="-34.23610305786133" width="171.20066833496094" height="63.560707092285156" pointer-events="none"  style="display: block;"></rect><text joint-selector="text" id="v-59" font-size="24px" xml:space="preserve" fill="#444444" text-anchor="middle" pointer-events="none" font-family="Tahoma, Verdana, Helvetica, Arial" font-weight="normal"  style="display: block;"><tspan  dy="-0.3em">Pide los datos a</tspan><tspan dy="1.2em" x="0" >Reddit</tspan></text></g><g id="v-57"  label-idx="1" cursor="move" transform="matrix(1,0,0,1,284.5074768066406,1161.38525390625)" style="cursor: default;"><rect joint-selector="rect" id="v-62" fill="#ffffff" rx="3" ry="3" x="-48.527496337890625" y="-14.279998779296875" width="97.40499877929688" height="25.759998321533203"  pointer-events="none" style="display: block;"></rect><text joint-selector="text" id="v-61" font-size="16.799999999999997px" xml:space="preserve" fill="#444444" text-anchor="middle" pointer-events="none" font-family="Tahoma, Verdana, Helvetica, Arial" font-weight="normal"  style="display: block;"><tspan  dy="0.3em">[API externa]</tspan></text></g><g id="v-58"  label-idx="2" cursor="move" transform="matrix(1,0,0,1,274.5074768066406,1169.7852783203125)" style="cursor: default;"><rect joint-selector="rect" id="v-64" fill="#ffffff" rx="3" ry="3" x="0" y="0" width="0" height="0"  display="none"></rect><text joint-selector="text" id="v-63" fill="#000000" font-size="14" text-anchor="middle" text-vertical-anchor="middle" pointer-events="none"></text></g></g></g><!--z-index:15--><g   id="j_8"  style="opacity: 1;"><path fill="none" cursor="pointer" stroke="transparent" stroke-linecap="round" joint-selector="wrapper" id="v-81" stroke-width="10" stroke-linejoin="round" d="M 517.78 1220 L 567 1139 C 570.3333333333333 1133.2666666666667 570.3333333333333 1127.6 567 1122 L 517.47 1040" style="stroke-width: 10px;"></path><path fill="none" pointer-events="none" joint-selector="line" id="v-80" stroke="#444444" stroke-width="2" stroke-linejoin="round" stroke-dasharray="8 8" d="M 517.78 1220 L 567 1139 C 570.3333333333333 1133.2666666666667 570.3333333333333 1127.6 567 1122 L 517.47 1040" marker-end="url(#v-21252848929)"></path><g id="v-70" ><g id="v-71"  label-idx="0" cursor="move" transform="matrix(1,0,0,1,569.4925537109375,1116.5853271484375)" style="cursor: default;"><rect joint-selector="rect" id="v-75" fill="#ffffff" rx="3" ry="3" x="-99.43324279785156" y="-34.23610305786133" width="199.2023468017578" height="63.560707092285156" pointer-events="none"  style="display: block;"></rect><text joint-selector="text" id="v-74" font-size="24px" xml:space="preserve" fill="#444444" text-anchor="middle" pointer-events="none" font-family="Tahoma, Verdana, Helvetica, Arial" font-weight="normal"  style="display: block;"><tspan  dy="-0.3em">Devuelve datos en</tspan><tspan dy="1.2em" x="0" >crudo</tspan></text></g><g id="v-72"  label-idx="1" cursor="move" transform="matrix(1,0,0,1,569.4925537109375,1161.38525390625)" style="cursor: default;"><rect joint-selector="rect" id="v-77" fill="#ffffff" rx="3" ry="3" x="-27.072498321533203" y="-14.279998779296875" width="54.494998931884766" height="25.759998321533203"  pointer-events="none" style="display: block;"></rect><text joint-selector="text" id="v-76" font-size="16.799999999999997px" xml:space="preserve" fill="#444444" text-anchor="middle" pointer-events="none" font-family="Tahoma, Verdana, Helvetica, Arial" font-weight="normal"  style="display: block;"><tspan  dy="0.3em">[JSON]</tspan></text></g><g id="v-73"  label-idx="2" cursor="move" transform="matrix(1,0,0,1,559.4925537109375,1169.7852783203125)" style="cursor: default;"><rect joint-selector="rect" id="v-79" fill="#ffffff" rx="3" ry="3" x="0" y="0" width="0" height="0"  display="none"></rect><text joint-selector="text" id="v-78" fill="#000000" font-size="14" text-anchor="middle" text-vertical-anchor="middle" pointer-events="none"></text></g></g></g><!--z-index:16--></g><g  style="user-select: none;"></g><g ></g><g  display="none"></g></g></svg>