<svg xmlns="http://www.w3.org/2000/svg" xmlns:xlink="http://www.w3.org/1999/xlink" version="1.1" width="1925" height="2422" style="width: 1925px; height: 2422px; background: #ffffff" viewBox="0 0 1925 2422"><style id="v-3" type="text/css">        .joint-element .scalable * {            vector-effect: non-scaling-stroke;        }    </style><defs joint-selector="defs"><marker id="v-21252848929" orient="auto" overflow="visible" markerUnits="userSpaceOnUse"><path id="v-51" stroke="#444444" fill="#444444" transform="rotate(180)" d="M 20 -10 0 0 20 10 Z"></path></marker></defs><g  joint-selector="layers" transform="matrix(1,0,0,1,0,0)"><g style="pointer-events: none;" ></g><g ></g><g  style="user-select: none;"><!--z-index:1--><!--z-index:2--><!--z-index:3--><!--z-index:4--><!--z-index:5--><!--z-index:6--><!--z-index:7--><!--z-index:8--><!--z-index:9--><!--z-index:10--><!--z-index:11--><!--z-index:12--><!--z-index:13--><!--z-index:14--><g   id="j_32"  transform="translate(20,2378)"><g id="v-310"><text  id="v-311" font-size="24px" xml:space="preserve" y="0.8em" font-weight="normal" text-anchor="start" fill="#444444" pointer-events="none" display="block" font-family="Tahoma, Verdana, Helvetica, Arial"><tspan  dy="0">Sunday, March 22, 2026 at 2:04 PM Central Standard Time</tspan></text></g></g><!--z-index:15--><g   id="j_31"  transform="translate(20,2332)"><g id="v-308"><text  id="v-309" font-size="36px" xml:space="preserve" y="0.8em" font-weight="normal" text-anchor="start" fill="#444444" pointer-events="none" display="block" font-family="Tahoma, Verdana, Helvetica, Arial"><tspan  dy="0">Container View: Reddit Bot Analyzer</tspan></text></g></g><!--z-index:16--><g   id="j_33"  transform="translate(959,160)" style=""><g  id="v-315" style="opacity: 1;"><rect  x="0" y="160" width="400" height="240" rx="70" id="v-317" stroke-width="3" pointer-events="visiblePainted" fill="#10a40b" stroke="#055b8a" stroke-dasharray="" style="fill: rgb(16, 164, 11); stroke: rgb(5, 91, 138);"></rect><circle  cx="200" cy="88.88888888888889" r="88.88888888888889" id="v-316" stroke-width="3" pointer-events="visiblePainted" fill="#10a40b" stroke="#055b8a" stroke-dasharray="" style="fill: rgb(16, 164, 11); stroke: rgb(5, 91, 138);"></circle><line  x1="80" y1="266.6666666666667" x2="80" y2="400" id="v-323" stroke="#055b8a" stroke-width="1" stroke-dasharray="" style="stroke: rgb(5, 91, 138);"></line><line  x1="320" y1="266.6666666666667" x2="320" y2="400" id="v-324" stroke="#055b8a" stroke-width="1" stroke-dasharray="" style="stroke: rgb(5, 91, 138);"></line><text  id="v-318" font-size="33.599999999999994px" xml:space="preserve" y="230.64000000000001" font-weight="bold" text-anchor="middle" pointer-events="visible" font-family="Tahoma, Verdana, Helvetica, Arial" fill="#ffffff" dominant-baseline="hanging" transform="matrix(1,0,0,1,200,0)" style="fill: rgb(255, 255, 255);"><tspan  dy="0">Analista / Usuario</tspan><tspan dy="1.2em" x="0" >Final</tspan></text><text  id="v-319" font-size="16.799999999999997px" xml:space="preserve" y="312.56" text-anchor="middle" font-family="Tahoma, Verdana, Helvetica, Arial" fill="#ffffff" dominant-baseline="hanging" transform="matrix(1,0,0,1,200,0)" style="display: block; fill: rgb(255, 255, 255);"><tspan  dy="0">[Person]</tspan></text><text  id="v-320" font-size="24px" xml:space="preserve" display="none" y="230.64000000000001" text-anchor="middle" font-family="Tahoma, Verdana, Helvetica, Arial" fill="#ffffff" dominant-baseline="hanging" transform="matrix(1,0,0,1,200,0)" style="display: block; fill: rgb(255, 255, 255);"><tspan style="fill-opacity: 0; stroke-opacity: 0;"  dy="0">-</tspan></text><g  id="v-321" font-weight="normal" text-anchor="middle" color="#ffffff" transform="matrix(1,0,0,1,197.5,368)" style="fill: rgb(255, 255, 255);" display="none"><g ></g><g ></g><g ></g><g ></g></g><image  id="v-322"></image></g></g><!--z-index:17--><g   id="j_34"  transform="translate(199,1752)" style=""><g  id="v-325" style="opacity: 1;"><rect  id="v-326" rx="20" ry="20" stroke-width="3" pointer-events="visiblePainted" fill="#ff4500" stroke="#8c0b04" stroke-dasharray="" width="450" height="300" style="fill: rgb(255, 69, 0); stroke: rgb(140, 11, 4);"></rect><text  id="v-327" font-size="33.599999999999994px" xml:space="preserve" y="120.80000000000001" font-weight="bold" text-anchor="middle" pointer-events="visible" font-family="Tahoma, Verdana, Helvetica, Arial" fill="#ffffff" dominant-baseline="hanging" transform="matrix(1,0,0,1,225,0)" style="fill: rgb(255, 255, 255);"><tspan  dy="0">API de Reddit</tspan></text><text  id="v-328" font-size="16.799999999999997px" xml:space="preserve" y="162.4" text-anchor="middle" font-family="Tahoma, Verdana, Helvetica, Arial" fill="#ffffff" dominant-baseline="hanging" transform="matrix(1,0,0,1,225,0)" style="display: block; fill: rgb(255, 255, 255);"><tspan  dy="0">[Software System]</tspan></text><text  id="v-329" font-size="24px" xml:space="preserve" display="none" y="120.80000000000001" text-anchor="middle" font-family="Tahoma, Verdana, Helvetica, Arial" fill="#ffffff" dominant-baseline="hanging" transform="matrix(1,0,0,1,225,0)" style="display: block; fill: rgb(255, 255, 255);"><tspan style="fill-opacity: 0; stroke-opacity: 0;"  dy="0">-</tspan></text><g  id="v-330" color="#ffffff" transform="matrix(1,0,0,1,222.5,268)" style="fill: rgb(255, 255, 255);" display="none"><g ></g><g ></g><g ></g><g ></g></g><image  id="v-331"></image></g></g><!--z-index:18--><g   id="j_36"  transform="translate(884,741)" style="; opacity: 1;"><g id="v-345"><rect  id="v-346" width="840" height="1440" rx="20" ry="20" stroke-width="3" pointer-events="none" stroke="#055b8a" fill="#ffffff" opacity="1" stroke-dasharray=""></rect><text  id="v-347" font-size="33.599999999999994px" xml:space="preserve" y="1401" font-weight="bold" text-anchor="start" pointer-events="visible" font-family="Tahoma, Verdana, Helvetica, Arial" fill="#055b8a" transform="matrix(1,0,0,1,15,0)"><tspan  dy="0">Reddit Bot Analyzer</tspan></text><text  id="v-348" font-size="16.799999999999997px" xml:space="preserve" y="1425" font-weight="normal" text-anchor="start" pointer-events="visible" font-family="Tahoma, Verdana, Helvetica, Arial" fill="#055b8a" transform="matrix(1,0,0,1,15,0)"><tspan  dy="0">[Software System]</tspan></text><image  id="v-349" pointer-events="visible"></image></g></g><!--z-index:19--><g   id="j_35"  transform="translate(934,791)" style=""><g  id="v-338" style="opacity: 1;"><rect  id="v-339" rx="20" ry="20" stroke-width="3" pointer-events="visiblePainted" fill="#0773af" stroke="#055b8a" stroke-dasharray="" width="450" height="300" style="fill: rgb(7, 115, 175); stroke: rgb(5, 91, 138);"></rect><text  id="v-340" font-size="33.599999999999994px" xml:space="preserve" y="66.74000000000001" font-weight="bold" text-anchor="middle" pointer-events="visible" font-family="Tahoma, Verdana, Helvetica, Arial" fill="#ffffff" dominant-baseline="hanging" transform="matrix(1,0,0,1,225,0)" style="fill: rgb(255, 255, 255);"><tspan  dy="0">Aplicación Web</tspan><tspan dy="1.2em" x="0" >(Dashboard)</tspan></text><text  id="v-341" font-size="16.799999999999997px" xml:space="preserve" y="148.66" text-anchor="middle" font-family="Tahoma, Verdana, Helvetica, Arial" fill="#ffffff" dominant-baseline="hanging" transform="matrix(1,0,0,1,225,0)" style="display: block; fill: rgb(255, 255, 255);"><tspan  dy="0">[Container: Streamlit]</tspan></text><text  id="v-342" font-size="24px" xml:space="preserve" y="180.45999999999998" text-anchor="middle" font-family="Tahoma, Verdana, Helvetica, Arial" fill="#ffffff" dominant-baseline="hanging" transform="matrix(1,0,0,1,225,0)" style="display: block; fill: rgb(255, 255, 255);"><tspan  dy="0">Interfaz gráfica para solicitar análisis</tspan><tspan dy="1.2em" x="0" >y ver resultados</tspan></text><g  id="v-343" color="#ffffff" transform="matrix(1,0,0,1,222.5,268)" style="fill: rgb(255, 255, 255);" display="none"><g ></g><g ></g><g ></g><g ></g></g><image  id="v-344"></image></g></g><!--z-index:20--><g   id="j_37"  transform="translate(1224,1752)" style=""><g  id="v-353" style="opacity: 1;"><path  d="M 0,30 a 225,30 0,0,0 450 0 a 225,30 0,0,0 -450 0 l 0,240 a 225,30 0,0,0 450 0 l 0,-240" id="v-354" stroke-width="3" pointer-events="visiblePainted" fill="#0773af" stroke="#055b8a" stroke-dasharray="" style="fill: rgb(7, 115, 175); stroke: rgb(5, 91, 138);"></path><rect  id="v-355" stroke-width="0" pointer-events="visiblePainted" fill="none" stroke="none" width="450" height="270" x="0" y="30"></rect><text  id="v-356" font-size="33.599999999999994px" xml:space="preserve" y="101.9" font-weight="bold" text-anchor="middle" pointer-events="visible" font-family="Tahoma, Verdana, Helvetica, Arial" fill="#ffffff" dominant-baseline="hanging" transform="matrix(1,0,0,1,225,0)" style="fill: rgb(255, 255, 255);"><tspan  dy="0">Base de Datos</tspan></text><text  id="v-357" font-size="16.799999999999997px" xml:space="preserve" y="143.5" text-anchor="middle" font-family="Tahoma, Verdana, Helvetica, Arial" fill="#ffffff" dominant-baseline="hanging" transform="matrix(1,0,0,1,225,0)" style="display: block; fill: rgb(255, 255, 255);"><tspan  dy="0">[Container: MongoDB]</tspan></text><text  id="v-358" font-size="24px" xml:space="preserve" y="175.3" text-anchor="middle" font-family="Tahoma, Verdana, Helvetica, Arial" fill="#ffffff" dominant-baseline="hanging" transform="matrix(1,0,0,1,225,0)" style="display: block; fill: rgb(255, 255, 255);"><tspan  dy="0">Almacena análisis históricos y</tspan><tspan dy="1.2em" x="0" >resultados temporales</tspan></text><g  id="v-359" font-weight="normal" text-anchor="middle" color="#ffffff" transform="matrix(1,0,0,1,222.5,268)" style="fill: rgb(255, 255, 255);" display="none"><g ></g><g ></g><g ></g><g ></g></g><image  id="v-360"></image></g></g><!--z-index:21--><g   id="j_38"  transform="translate(934,1273)" style=""><g  id="v-367" style="opacity: 1;"><rect  id="v-368" rx="20" ry="20" stroke-width="3" pointer-events="visiblePainted" fill="#0773af" stroke="#055b8a" stroke-dasharray="" width="450" height="300" style="fill: rgb(7, 115, 175); stroke: rgb(5, 91, 138);"></rect><text  id="v-369" font-size="33.599999999999994px" xml:space="preserve" y="86.9" font-weight="bold" text-anchor="middle" pointer-events="visible" font-family="Tahoma, Verdana, Helvetica, Arial" fill="#ffffff" dominant-baseline="hanging" transform="matrix(1,0,0,1,225,0)" style="fill: rgb(255, 255, 255);"><tspan  dy="0">Backend Application</tspan></text><text  id="v-370" font-size="16.799999999999997px" xml:space="preserve" y="128.5" text-anchor="middle" font-family="Tahoma, Verdana, Helvetica, Arial" fill="#ffffff" dominant-baseline="hanging" transform="matrix(1,0,0,1,225,0)" style="display: block; fill: rgb(255, 255, 255);"><tspan  dy="0">[Container: FastAPI + Python]</tspan></text><text  id="v-371" font-size="24px" xml:space="preserve" y="160.3" text-anchor="middle" font-family="Tahoma, Verdana, Helvetica, Arial" fill="#ffffff" dominant-baseline="hanging" transform="matrix(1,0,0,1,225,0)" style="display: block; fill: rgb(255, 255, 255);"><tspan  dy="0">Orquesta peticiones, extrae datos y</tspan><tspan dy="1.2em" x="0" >ejecuta predicciones</tspan></text><g  id="v-372" color="#ffffff" transform="matrix(1,0,0,1,210,268)" style="fill: rgb(255, 255, 255);" display="none"><g  transform="translate(5 0)"><svg xmlns="http://www.w3.org/2000/svg" width="20" height="20" fill="currentColor" viewBox="0 0 16 16"><path fill-rule="evenodd" d="M6.5 12a5.5 5.5 0 1 0 0-11 5.5 5.5 0 0 0 0 11zM13 6.5a6.5 6.5 0 1 1-13 0 6.5 6.5 0 0 1 13 0z"></path><path d="M10.344 11.742c.03.04.062.078.098.115l3.85 3.85a1 1 0 0 0 1.415-1.414l-3.85-3.85a1.007 1.007 0 0 0-.115-.1 6.538 6.538 0 0 1-1.398 1.4z"></path><path fill-rule="evenodd" d="M6.5 3a.5.5 0 0 1 .5.5V6h2.5a.5.5 0 0 1 0 1H7v2.5a.5.5 0 0 1-1 0V7H3.5a.5.5 0 0 1 0-1H6V3.5a.5.5 0 0 1 .5-.5z"></path></svg></g><g ></g><g ></g><g ></g></g><image  id="v-373"></image></g></g><!--z-index:22--><g   id="j_39"  style="opacity: 1;"><path fill="none" cursor="pointer" stroke="transparent" stroke-linecap="round" joint-selector="wrapper" id="v-385" stroke-width="10" stroke-linejoin="round" d="M 1159 560 L 1159 791"></path><path fill="none" pointer-events="none" joint-selector="line" id="v-384" stroke="#444444" stroke-width="2" stroke-linejoin="round" stroke-dasharray="8 8" d="M 1159 560 L 1159 791" marker-end="url(#v-21252848929)"></path><g id="v-377" ><g id="v-378"  label-idx="0" cursor="move" transform="matrix(1,0,0,1,1159,650.5647583007812)" style="cursor: default;"><rect joint-selector="rect" id="v-381" fill="#ffffff" rx="3" ry="3" x="-74.69999694824219" y="-49.19999694824219" width="150.29998779296875" height="94.4000015258789" pointer-events="none"  style="display: block;"></rect><text joint-selector="text" id="v-380" font-size="24px" xml:space="preserve" fill="#444444" text-anchor="middle" pointer-events="none" font-family="Tahoma, Verdana, Helvetica, Arial" font-weight="normal"  style="display: block;"><tspan  dy="-0.8999999999999999em">Introduce</tspan><tspan dy="1.2em" x="0" >subreddit y ve</tspan><tspan dy="1.2em" x="0" >resultados</tspan></text></g><g id="v-379"  label-idx="1" cursor="move" transform="matrix(1,0,0,1,1149,691.36474609375)" style="cursor: default;"><rect joint-selector="rect" id="v-383" fill="#ffffff" rx="3" ry="3" x="0" y="0" width="0" height="0"  display="none"></rect><text joint-selector="text" id="v-382" fill="#000000" font-size="14" text-anchor="middle" text-vertical-anchor="middle" pointer-events="none"></text></g></g></g><!--z-index:23--><g   id="j_40"  style="opacity: 1;"><path fill="none" cursor="pointer" stroke="transparent" stroke-linecap="round" joint-selector="wrapper" id="v-400" stroke-width="10" stroke-linejoin="round" d="M 1011.42 1091 L 929 1175 C 923.9999999999999 1179.9333333333334 923.9999999999999 1184.9333333333334 929 1190 L 1010.93 1273"></path><path fill="none" pointer-events="none" joint-selector="line" id="v-399" stroke="#444444" stroke-width="2" stroke-linejoin="round" stroke-dasharray="8 8" d="M 1011.42 1091 L 929 1175 C 923.9999999999999 1179.9333333333334 923.9999999999999 1184.9333333333334 929 1190 L 1010.93 1273" marker-end="url(#v-21252848929)"></path><g id="v-389" ><g id="v-390"  label-idx="0" cursor="move" transform="matrix(1,0,0,1,925.2665405273438,1168.5521240234375)" style="cursor: default;"><rect joint-selector="rect" id="v-394" fill="#ffffff" rx="3" ry="3" x="-78.0250015258789" y="-34.79999923706055" width="156.5500030517578" height="65.5999984741211" pointer-events="none"  style="display: block;"></rect><text joint-selector="text" id="v-393" font-size="24px" xml:space="preserve" fill="#444444" text-anchor="middle" pointer-events="none" font-family="Tahoma, Verdana, Helvetica, Arial" font-weight="normal"  style="display: block;"><tspan  dy="-0.3em">Llama a la API</tspan><tspan dy="1.2em" x="0" >para analizar</tspan></text></g><g id="v-391"  label-idx="1" cursor="move" transform="matrix(1,0,0,1,925.2665405273438,1213.3521728515625)" style="cursor: default;"><rect joint-selector="rect" id="v-396" fill="#ffffff" rx="3" ry="3" x="-51.79999542236328" y="-14.279998779296875" width="103.94999694824219" height="25.759998321533203"  pointer-events="none" style="display: block;"></rect><text joint-selector="text" id="v-395" font-size="16.799999999999997px" xml:space="preserve" fill="#444444" text-anchor="middle" pointer-events="none" font-family="Tahoma, Verdana, Helvetica, Arial" font-weight="normal"  style="display: block;"><tspan  dy="0.3em">[JSON/REST]</tspan></text></g><g id="v-392"  label-idx="2" cursor="move" transform="matrix(1,0,0,1,915.2665405273438,1221.752197265625)" style="cursor: default;"><rect joint-selector="rect" id="v-398" fill="#ffffff" rx="3" ry="3" x="0" y="0" width="0" height="0"  display="none"></rect><text joint-selector="text" id="v-397" fill="#000000" font-size="14" text-anchor="middle" text-vertical-anchor="middle" pointer-events="none"></text></g></g></g><!--z-index:24--><g   id="j_41"  style="opacity: 1;"><path fill="none" cursor="pointer" stroke="transparent" stroke-linecap="round" joint-selector="wrapper" id="v-412" stroke-width="10" stroke-linejoin="round" d="M 1372.53 1273 L 1493 1188 C 1498.6666666666665 1184.2666666666667 1498.6666666666665 1180.6 1493 1177 L 1371.82 1091"></path><path fill="none" pointer-events="none" joint-selector="line" id="v-411" stroke="#444444" stroke-width="2" stroke-linejoin="round" stroke-dasharray="8 8" d="M 1372.53 1273 L 1493 1188 C 1498.6666666666665 1184.2666666666667 1498.6666666666665 1180.6 1493 1177 L 1371.82 1091" marker-end="url(#v-21252848929)"></path><g id="v-404" ><g id="v-405"  label-idx="0" cursor="move" transform="matrix(1,0,0,1,1497.20947265625,1181.913330078125)" style="cursor: default;"><rect joint-selector="rect" id="v-408" fill="#ffffff" rx="3" ry="3" x="-100.02499389648438" y="-49.19999694824219" width="200.0500030517578" height="94.4000015258789" pointer-events="none"  style="display: block;"></rect><text joint-selector="text" id="v-407" font-size="24px" xml:space="preserve" fill="#444444" text-anchor="middle" pointer-events="none" font-family="Tahoma, Verdana, Helvetica, Arial" font-weight="normal"  style="display: block;"><tspan  dy="-0.8999999999999999em">Devuelve</tspan><tspan dy="1.2em" x="0" >respuesta final / ID</tspan><tspan dy="1.2em" x="0" >de tarea</tspan></text></g><g id="v-406"  label-idx="1" cursor="move" transform="matrix(1,0,0,1,1487.20947265625,1222.71337890625)" style="cursor: default;"><rect joint-selector="rect" id="v-410" fill="#ffffff" rx="3" ry="3" x="0" y="0" width="0" height="0"  display="none"></rect><text joint-selector="text" id="v-409" fill="#000000" font-size="14" text-anchor="middle" text-vertical-anchor="middle" pointer-events="none"></text></g></g></g><!--z-index:25--><g   id="j_42"  style="opacity: 1;"><path fill="none" cursor="pointer" stroke="transparent" stroke-linecap="round" joint-selector="wrapper" id="v-427" stroke-width="10" stroke-linejoin="round" d="M 977.75 1573 L 877 1657 C 871.6666666666665 1660.9999999999998 865.9999999999999 1664.6666666666665 860 1668 L 649 1781.16"></path><path fill="none" pointer-events="none" joint-selector="line" id="v-426" stroke="#444444" stroke-width="2" stroke-linejoin="round" stroke-dasharray="8 8" d="M 977.75 1573 L 877 1657 C 871.6666666666665 1660.9999999999998 865.9999999999999 1664.6666666666665 860 1668 L 649 1781.16" marker-end="url(#v-21252848929)"></path><g id="v-416" ><g id="v-417"  label-idx="0" cursor="move" transform="matrix(1,0,0,1,869.015380859375,1649.1778564453125)" style="cursor: default;"><rect joint-selector="rect" id="v-421" fill="#ffffff" rx="3" ry="3" x="-85.375" y="-34.79999923706055" width="171.64999389648438" height="65.5999984741211" pointer-events="none"  style="display: block;"></rect><text joint-selector="text" id="v-420" font-size="24px" xml:space="preserve" fill="#444444" text-anchor="middle" pointer-events="none" font-family="Tahoma, Verdana, Helvetica, Arial" font-weight="normal"  style="display: block;"><tspan  dy="-0.3em">Pide los datos a</tspan><tspan dy="1.2em" x="0" >Reddit</tspan></text></g><g id="v-418"  label-idx="1" cursor="move" transform="matrix(1,0,0,1,869.015380859375,1693.9779052734375)" style="cursor: default;"><rect joint-selector="rect" id="v-423" fill="#ffffff" rx="3" ry="3" x="-48.527496337890625" y="-14.279998779296875" width="97.40499877929688" height="25.759998321533203"  pointer-events="none" style="display: block;"></rect><text joint-selector="text" id="v-422" font-size="16.799999999999997px" xml:space="preserve" fill="#444444" text-anchor="middle" pointer-events="none" font-family="Tahoma, Verdana, Helvetica, Arial" font-weight="normal"  style="display: block;"><tspan  dy="0.3em">[API externa]</tspan></text></g><g id="v-419"  label-idx="2" cursor="move" transform="matrix(1,0,0,1,811.2279663085938,1728.5936279296875)" style="cursor: default;"><rect joint-selector="rect" id="v-425" fill="#ffffff" rx="3" ry="3" x="0" y="0" width="0" height="0"  display="none"></rect><text joint-selector="text" id="v-424" fill="#000000" font-size="14" text-anchor="middle" text-vertical-anchor="middle" pointer-events="none"></text></g></g></g><!--z-index:26--><g   id="j_43"  style="opacity: 1;"><path fill="none" cursor="pointer" stroke="transparent" stroke-linecap="round" joint-selector="wrapper" id="v-442" stroke-width="10" stroke-linejoin="round" d="M 649 1828.84 L 1149 1666 C 1155.6666666666665 1663.9999999999998 1159 1659.6666666666665 1159 1653 L 1159 1573"></path><path fill="none" pointer-events="none" joint-selector="line" id="v-441" stroke="#444444" stroke-width="2" stroke-linejoin="round" stroke-dasharray="8 8" d="M 649 1828.84 L 1149 1666 C 1155.6666666666665 1663.9999999999998 1159 1659.6666666666665 1159 1653 L 1159 1573" marker-end="url(#v-21252848929)"></path><g id="v-431" ><g id="v-432"  label-idx="0" cursor="move" transform="matrix(1,0,0,1,1156.0941162109375,1648.34716796875)" style="cursor: default;"><rect joint-selector="rect" id="v-436" fill="#ffffff" rx="3" ry="3" x="-99.4000015258789" y="-34.79999923706055" width="199.6999969482422" height="65.5999984741211" pointer-events="none"  style="display: block;"></rect><text joint-selector="text" id="v-435" font-size="24px" xml:space="preserve" fill="#444444" text-anchor="middle" pointer-events="none" font-family="Tahoma, Verdana, Helvetica, Arial" font-weight="normal"  style="display: block;"><tspan  dy="-0.3em">Devuelve datos en</tspan><tspan dy="1.2em" x="0" >crudo</tspan></text></g><g id="v-433"  label-idx="1" cursor="move" transform="matrix(1,0,0,1,1156.0941162109375,1693.1470947265625)" style="cursor: default;"><rect joint-selector="rect" id="v-438" fill="#ffffff" rx="3" ry="3" x="-27.072498321533203" y="-14.279998779296875" width="54.494998931884766" height="25.759998321533203"  pointer-events="none" style="display: block;"></rect><text joint-selector="text" id="v-437" font-size="16.799999999999997px" xml:space="preserve" fill="#444444" text-anchor="middle" pointer-events="none" font-family="Tahoma, Verdana, Helvetica, Arial" font-weight="normal"  style="display: block;"><tspan  dy="0.3em">[JSON]</tspan></text></g><g id="v-434"  label-idx="2" cursor="move" transform="matrix(1,0,0,1,935.4974365234375,1772.07666015625)" style="cursor: default;"><rect joint-selector="rect" id="v-440" fill="#ffffff" rx="3" ry="3" x="0" y="0" width="0" height="0"  display="none"></rect><text joint-selector="text" id="v-439" fill="#000000" font-size="14" text-anchor="middle" text-vertical-anchor="middle" pointer-events="none"></text></g></g></g><!--z-index:27--><g   id="j_44"  style="opacity: 1;"><path fill="none" cursor="pointer" stroke="transparent" stroke-linecap="round" joint-selector="wrapper" id="v-457" stroke-width="10" stroke-linejoin="round" d="M 1340.25 1573 L 1441 1657 C 1446.3333333333333 1660.9999999999998 1449 1666.333333333333 1449 1673 L 1449 1752"></path><path fill="none" pointer-events="none" joint-selector="line" id="v-456" stroke="#444444" stroke-width="2" stroke-linejoin="round" stroke-dasharray="8 8" d="M 1340.25 1573 L 1441 1657 C 1446.3333333333333 1660.9999999999998 1449 1666.333333333333 1449 1673 L 1449 1752" marker-end="url(#v-21252848929)"></path><g id="v-446" ><g id="v-447"  label-idx="0" cursor="move" transform="matrix(1,0,0,1,1446.658447265625,1649.950439453125)" style="cursor: default;"><rect joint-selector="rect" id="v-451" fill="#ffffff" rx="3" ry="3" x="-92.7249984741211" y="-34.79999923706055" width="186.34999084472656" height="65.5999984741211" pointer-events="none"  style="display: block;"></rect><text joint-selector="text" id="v-450" font-size="24px" xml:space="preserve" fill="#444444" text-anchor="middle" pointer-events="none" font-family="Tahoma, Verdana, Helvetica, Arial" font-weight="normal"  style="display: block;"><tspan  dy="-0.3em">Lee/Escribe en la</tspan><tspan dy="1.2em" x="0" >base de datos</tspan></text></g><g id="v-448"  label-idx="1" cursor="move" transform="matrix(1,0,0,1,1446.658447265625,1694.75048828125)" style="cursor: default;"><rect joint-selector="rect" id="v-453" fill="#ffffff" rx="3" ry="3" x="-21.454998016357422" y="-14.279998779296875" width="43.2599983215332" height="25.759998321533203"  pointer-events="none" style="display: block;"></rect><text joint-selector="text" id="v-452" font-size="16.799999999999997px" xml:space="preserve" fill="#444444" text-anchor="middle" pointer-events="none" font-family="Tahoma, Verdana, Helvetica, Arial" font-weight="normal"  style="display: block;"><tspan  dy="0.3em">[TCP]</tspan></text></g><g id="v-449"  label-idx="2" cursor="move" transform="matrix(1,0,0,1,1418.1087646484375,1686.0518798828125)" style="cursor: default;"><rect joint-selector="rect" id="v-455" fill="#ffffff" rx="3" ry="3" x="0" y="0" width="0" height="0"  display="none"></rect><text joint-selector="text" id="v-454" fill="#000000" font-size="14" text-anchor="middle" text-vertical-anchor="middle" pointer-events="none"></text></g></g></g><!--z-index:28--></g><g  style="user-select: none;"></g><g ></g><g  display="none"></g></g></svg>